<svg width="197" height="93" viewBox="0 0 197 93" fill="none" xmlns="http://www.w3.org/2000/svg">
<path d="M23.0968 40L0 0H15.7661L30.528 27.1L44.9886 0H60.8551L37.2562 40V70H23.0968V40Z" fill="#6047FF"/>
<path d="M82.7602 21.8C87.1787 21.8 90.9278 22.8667 94.0073 25C97.1539 27.0667 99.497 29.8667 101.037 33.4C102.577 36.8667 103.346 40.7 103.346 44.9V48.1C103.346 52.3 102.577 56.1667 101.037 59.7C99.497 63.1667 97.1539 65.9667 94.0073 68.1C90.9278 70.1667 87.1787 71.2 82.7602 71.2C78.9442 71.2 75.9316 70.7 73.7223 69.7C71.58 68.6333 69.7389 67.1 68.1992 65.1V91.9H55.1444V37.5C55.1444 35.7 54.7762 34.2333 54.0398 33.1C53.3703 31.9667 52.1318 30.7333 50.3242 29.4L59.0609 21.8C61.2701 22.9333 63.0107 24.1333 64.2827 25.4C65.6217 26.6667 66.5924 28.1667 67.1949 29.9C70.6093 24.5 75.7977 21.8 82.7602 21.8ZM90.2918 44.9C90.2918 41.3 89.2876 38.2333 87.2791 35.7C85.3377 33.1 82.5594 31.8 78.9442 31.8C73.3206 31.8 69.7389 34.5333 68.1992 40V53C69.7389 58.4667 73.3206 61.2 78.9442 61.2C82.6263 61.2 85.4381 59.9333 87.3796 57.4C89.321 54.8667 90.2918 51.7667 90.2918 48.1V44.9Z" fill="#6047FF"/>
<path d="M146.64 55.5C146.64 57.3 146.975 58.7667 147.645 59.9C148.381 61.0333 149.653 62.2667 151.461 63.6L142.724 71.2C138.908 69.2667 136.297 66.8333 134.891 63.9C133.418 65.9667 131.41 67.7 128.866 69.1C126.322 70.5 123.175 71.2 119.426 71.2C114.673 71.2 110.891 70 108.079 67.6C105.267 65.1333 103.861 61.6667 103.861 57.2C103.861 53.2 104.899 50.1333 106.974 48C109.117 45.8 111.56 44.3 114.305 43.5C117.05 42.7 120.096 42.1333 123.443 41.8L128.263 41.3C130.205 41.1 131.544 40.7667 132.28 40.3C133.084 39.8333 133.519 39.0667 133.586 38C133.452 36 132.782 34.3 131.577 32.9C130.439 31.5 128.23 30.8 124.95 30.8C122.807 30.8 120.933 31.2 119.326 32C117.719 32.8 116.079 34.1 114.405 35.9L105.468 29.7C107.409 27.1667 109.853 25.2333 112.799 23.9C115.744 22.5 119.795 21.8 124.95 21.8C139.41 21.8 146.64 27.6333 146.64 39.3V55.5ZM122.74 61.9C126.222 61.9 128.899 61.0667 130.774 59.4C132.648 57.6667 133.586 55.5667 133.586 53.1V48.9C132.515 49.3 130.473 49.6667 127.46 50L124.447 50.3C122.171 50.5 120.263 51.0333 118.723 51.9C117.184 52.7 116.414 54.2333 116.414 56.5C116.414 58.2333 116.983 59.5667 118.121 60.5C119.259 61.4333 120.799 61.9 122.74 61.9Z" fill="#6047FF"/>
<path d="M197 23V74.4C197 80.9333 195.192 85.6667 191.577 88.6C188.029 91.5333 182.238 93 174.204 93H160.949V83H174.204C177.619 83 180.096 82.3333 181.636 81C183.175 79.6667 183.945 77.4667 183.945 74.4V63.7C180.866 68.5667 176.079 71 169.585 71C164.296 71 160.212 69.6 157.334 66.8C154.455 64 153.016 60 153.016 54.8V37.5C153.016 35.7 152.647 34.2333 151.911 33.1C151.242 31.9667 150.003 30.7333 148.195 29.4L156.932 21.8C160.346 23.5333 162.723 25.5333 164.062 27.8C165.401 30 166.07 33.1 166.07 37.1V53.6C166.07 55.8667 166.706 57.6667 167.978 59C169.317 60.3333 171.125 61 173.401 61C176.481 61 178.79 60 180.33 58C181.937 56 183.142 53.3667 183.945 50.1V23H197Z" fill="#6047FF"/>
</svg>
