<svg xmlns="http://www.w3.org/2000/svg" width="197" height="93" fill="none" viewBox="0 0 197 93"><path fill="#6047ff" d="M23.097 40 0 0h15.766l14.762 27.1L44.988 0h15.867L37.256 40v30h-14.16Z"/><path fill="#6047ff" d="M82.76 21.8q6.629 0 11.247 3.2 4.72 3.1 7.03 8.4 2.31 5.2 2.309 11.5v3.2q0 6.3-2.309 11.6-2.31 5.2-7.03 8.4-4.62 3.1-11.247 3.1-5.724 0-9.038-1.5-3.213-1.6-5.523-4.6v26.8H55.144V37.5q0-2.7-1.104-4.4-1.005-1.7-3.716-3.7l8.737-7.6q3.315 1.7 5.222 3.6a11.15 11.15 0 0 1 2.912 4.5q5.121-8.1 15.565-8.1m7.532 23.1q0-5.4-3.013-9.2-2.912-3.9-8.335-3.9-8.435 0-10.745 8.2v13q2.31 8.2 10.745 8.2 5.523 0 8.436-3.8 2.912-3.8 2.912-9.3ZM146.64 55.5q0 2.7 1.005 4.4 1.104 1.7 3.816 3.7l-8.737 7.6q-5.724-2.9-7.833-7.3-2.21 3.1-6.025 5.2t-9.44 2.1q-7.13 0-11.347-3.6-4.218-3.7-4.218-10.4 0-6 3.113-9.2 3.214-3.3 7.331-4.5 4.118-1.2 9.138-1.7l4.82-.5q2.913-.3 4.017-1 1.206-.7 1.306-2.3-.201-3-2.009-5.1-1.707-2.1-6.627-2.1-3.214 0-5.624 1.2t-4.921 3.9l-8.937-6.2q2.912-3.8 7.331-5.8 4.418-2.1 12.151-2.1 21.69 0 21.69 17.5Zm-23.9 6.4q5.222 0 8.034-2.5 2.811-2.6 2.812-6.3v-4.2q-1.606.6-6.126 1.1l-3.013.3q-3.414.3-5.724 1.6-2.309 1.2-2.309 4.6 0 2.6 1.707 4t4.619 1.4M197 23v51.4q0 9.8-5.423 14.2-5.322 4.4-17.373 4.4h-13.255V83h13.255q5.122 0 7.432-2 2.309-2 2.309-6.6V63.7q-4.619 7.3-14.36 7.3-7.934 0-12.251-4.2t-4.318-12V37.5q0-2.7-1.105-4.4-1.004-1.7-3.716-3.7l8.737-7.6q5.121 2.6 7.13 6 2.008 3.3 2.008 9.3v16.5q0 3.4 1.908 5.4 2.009 2 5.423 2 4.62 0 6.929-3 2.41-3 3.615-7.9V23Z"/></svg>